<?xml version="1.0" encoding="UTF-8" standalone="no"?>
<!DOCTYPE svg PUBLIC "-//W3C//DTD SVG 1.1//EN"
 "http://www.w3.org/Graphics/SVG/1.1/DTD/svg11.dtd">
<!-- Generated by graphviz version 2.26.3 (20100126.1600)
 -->
<!-- Title: controllers_diagram Pages: 1 -->
<svg width="860pt" height="841pt"
 viewBox="0.00 0.00 860.00 841.00" xmlns="http://www.w3.org/2000/svg" xmlns:xlink="http://www.w3.org/1999/xlink">
<g id="graph1" class="graph" transform="scale(1 1) rotate(0) translate(4 837)">
<title>controllers_diagram</title>
<polygon fill="white" stroke="white" points="-4,5 -4,-837 857,-837 857,5 -4,5"/>
<!-- _diagram_info -->
<g id="node1" class="node"><title>_diagram_info</title>
<text text-anchor="start" x="609" y="-158.3" font-family="Times Roman,serif" font-size="13.00">Controllers diagram</text>
<text text-anchor="start" x="609" y="-141.3" font-family="Times Roman,serif" font-size="13.00">Date: Mar 25 2012 &#45; 14:08</text>
<text text-anchor="start" x="609" y="-124.3" font-family="Times Roman,serif" font-size="13.00">Migration version: 20120219002131</text>
<text text-anchor="start" x="609" y="-107.3" font-family="Times Roman,serif" font-size="13.00">Generated by RailRoady 1.0.7</text>
<text text-anchor="start" x="609" y="-90.3" font-family="Times Roman,serif" font-size="13.00">http://railroady.prestonlee.com</text>
</g>
<!-- AddressesController -->
<g id="node2" class="node"><title>AddressesController</title>
<polyline fill="none" stroke="black" points="273,-481.5 404,-481.5 "/>
<path fill="none" stroke="black" d="M404,-481.5C410,-481.5 416,-487.5 416,-493.5"/>
<polyline fill="none" stroke="black" points="416,-493.5 416,-679.5 "/>
<path fill="none" stroke="black" d="M416,-679.5C416,-685.5 410,-691.5 404,-691.5"/>
<polyline fill="none" stroke="black" points="404,-691.5 273,-691.5 "/>
<path fill="none" stroke="black" d="M273,-691.5C267,-691.5 261,-685.5 261,-679.5"/>
<polyline fill="none" stroke="black" points="261,-679.5 261,-493.5 "/>
<path fill="none" stroke="black" d="M261,-493.5C261,-487.5 267,-481.5 273,-481.5"/>
<text text-anchor="middle" x="338.5" y="-674.9" font-family="Times Roman,serif" font-size="14.00">AddressesController</text>
<polyline fill="none" stroke="black" points="261,-665.5 416,-665.5 "/>
<text text-anchor="start" x="269" y="-648.9" font-family="Times Roman,serif" font-size="14.00">create</text>
<text text-anchor="start" x="269" y="-630.9" font-family="Times Roman,serif" font-size="14.00">destroy</text>
<text text-anchor="start" x="269" y="-612.9" font-family="Times Roman,serif" font-size="14.00">edit</text>
<text text-anchor="start" x="269" y="-594.9" font-family="Times Roman,serif" font-size="14.00">index</text>
<text text-anchor="start" x="269" y="-576.9" font-family="Times Roman,serif" font-size="14.00">new</text>
<text text-anchor="start" x="269" y="-558.9" font-family="Times Roman,serif" font-size="14.00">show</text>
<text text-anchor="start" x="269" y="-540.9" font-family="Times Roman,serif" font-size="14.00">update</text>
<polyline fill="none" stroke="black" points="261,-531.5 416,-531.5 "/>
<polyline fill="none" stroke="black" points="261,-507.5 416,-507.5 "/>
<text text-anchor="start" x="269" y="-490.9" font-family="Times Roman,serif" font-size="14.00">_layout</text>
</g>
<!-- AdministratorsController -->
<g id="node3" class="node"><title>AdministratorsController</title>
<polyline fill="none" stroke="black" points="253,-221.5 416,-221.5 "/>
<path fill="none" stroke="black" d="M416,-221.5C422,-221.5 428,-227.5 428,-233.5"/>
<polyline fill="none" stroke="black" points="428,-233.5 428,-437.5 "/>
<path fill="none" stroke="black" d="M428,-437.5C428,-443.5 422,-449.5 416,-449.5"/>
<polyline fill="none" stroke="black" points="416,-449.5 253,-449.5 "/>
<path fill="none" stroke="black" d="M253,-449.5C247,-449.5 241,-443.5 241,-437.5"/>
<polyline fill="none" stroke="black" points="241,-437.5 241,-233.5 "/>
<path fill="none" stroke="black" d="M241,-233.5C241,-227.5 247,-221.5 253,-221.5"/>
<text text-anchor="middle" x="334.5" y="-432.9" font-family="Times Roman,serif" font-size="14.00">AdministratorsController</text>
<polyline fill="none" stroke="black" points="241,-423.5 428,-423.5 "/>
<text text-anchor="start" x="249" y="-406.9" font-family="Times Roman,serif" font-size="14.00">create</text>
<text text-anchor="start" x="249" y="-388.9" font-family="Times Roman,serif" font-size="14.00">destroy</text>
<text text-anchor="start" x="249" y="-370.9" font-family="Times Roman,serif" font-size="14.00">edit</text>
<text text-anchor="start" x="249" y="-352.9" font-family="Times Roman,serif" font-size="14.00">edit_password</text>
<text text-anchor="start" x="249" y="-334.9" font-family="Times Roman,serif" font-size="14.00">index</text>
<text text-anchor="start" x="249" y="-316.9" font-family="Times Roman,serif" font-size="14.00">new</text>
<text text-anchor="start" x="249" y="-298.9" font-family="Times Roman,serif" font-size="14.00">show</text>
<text text-anchor="start" x="249" y="-280.9" font-family="Times Roman,serif" font-size="14.00">update</text>
<polyline fill="none" stroke="black" points="241,-271.5 428,-271.5 "/>
<polyline fill="none" stroke="black" points="241,-247.5 428,-247.5 "/>
<text text-anchor="start" x="249" y="-230.9" font-family="Times Roman,serif" font-size="14.00">_layout</text>
</g>
<!-- ApplicationController -->
<g id="node4" class="node"><title>ApplicationController</title>
<polyline fill="none" stroke="black" points="353,-41.5 558,-41.5 "/>
<path fill="none" stroke="black" d="M558,-41.5C564,-41.5 570,-47.5 570,-53.5"/>
<polyline fill="none" stroke="black" points="570,-53.5 570,-167.5 "/>
<path fill="none" stroke="black" d="M570,-167.5C570,-173.5 564,-179.5 558,-179.5"/>
<polyline fill="none" stroke="black" points="558,-179.5 353,-179.5 "/>
<path fill="none" stroke="black" d="M353,-179.5C347,-179.5 341,-173.5 341,-167.5"/>
<polyline fill="none" stroke="black" points="341,-167.5 341,-53.5 "/>
<path fill="none" stroke="black" d="M341,-53.5C341,-47.5 347,-41.5 353,-41.5"/>
<text text-anchor="middle" x="455.5" y="-162.9" font-family="Times Roman,serif" font-size="14.00">ApplicationController</text>
<polyline fill="none" stroke="black" points="341,-153.5 570,-153.5 "/>
<text text-anchor="start" x="349" y="-136.9" font-family="Times Roman,serif" font-size="14.00">_one_time_conditions_valid_8?</text>
<text text-anchor="start" x="349" y="-118.9" font-family="Times Roman,serif" font-size="14.00">current_user</text>
<polyline fill="none" stroke="black" points="341,-109.5 570,-109.5 "/>
<polyline fill="none" stroke="black" points="341,-85.5 570,-85.5 "/>
<text text-anchor="start" x="349" y="-68.9" font-family="Times Roman,serif" font-size="14.00">_layout</text>
<text text-anchor="start" x="349" y="-50.9" font-family="Times Roman,serif" font-size="14.00">_run_process_action_callbacks</text>
</g>
<!-- AppointmentsController -->
<g id="node5" class="node"><title>AppointmentsController</title>
<polyline fill="none" stroke="black" points="473,-221.5 631,-221.5 "/>
<path fill="none" stroke="black" d="M631,-221.5C637,-221.5 643,-227.5 643,-233.5"/>
<polyline fill="none" stroke="black" points="643,-233.5 643,-419.5 "/>
<path fill="none" stroke="black" d="M643,-419.5C643,-425.5 637,-431.5 631,-431.5"/>
<polyline fill="none" stroke="black" points="631,-431.5 473,-431.5 "/>
<path fill="none" stroke="black" d="M473,-431.5C467,-431.5 461,-425.5 461,-419.5"/>
<polyline fill="none" stroke="black" points="461,-419.5 461,-233.5 "/>
<path fill="none" stroke="black" d="M461,-233.5C461,-227.5 467,-221.5 473,-221.5"/>
<text text-anchor="middle" x="552" y="-414.9" font-family="Times Roman,serif" font-size="14.00">AppointmentsController</text>
<polyline fill="none" stroke="black" points="461,-405.5 643,-405.5 "/>
<text text-anchor="start" x="469" y="-388.9" font-family="Times Roman,serif" font-size="14.00">create</text>
<text text-anchor="start" x="469" y="-370.9" font-family="Times Roman,serif" font-size="14.00">destroy</text>
<text text-anchor="start" x="469" y="-352.9" font-family="Times Roman,serif" font-size="14.00">edit</text>
<text text-anchor="start" x="469" y="-334.9" font-family="Times Roman,serif" font-size="14.00">index</text>
<text text-anchor="start" x="469" y="-316.9" font-family="Times Roman,serif" font-size="14.00">new</text>
<text text-anchor="start" x="469" y="-298.9" font-family="Times Roman,serif" font-size="14.00">show</text>
<text text-anchor="start" x="469" y="-280.9" font-family="Times Roman,serif" font-size="14.00">update</text>
<polyline fill="none" stroke="black" points="461,-271.5 643,-271.5 "/>
<polyline fill="none" stroke="black" points="461,-247.5 643,-247.5 "/>
<text text-anchor="start" x="469" y="-230.9" font-family="Times Roman,serif" font-size="14.00">_layout</text>
</g>
<!-- BillsController -->
<g id="node6" class="node"><title>BillsController</title>
<polyline fill="none" stroke="black" points="13,-1.5 102,-1.5 "/>
<path fill="none" stroke="black" d="M102,-1.5C108,-1.5 114,-7.5 114,-13.5"/>
<polyline fill="none" stroke="black" points="114,-13.5 114,-109.5 "/>
<path fill="none" stroke="black" d="M114,-109.5C114,-115.5 108,-121.5 102,-121.5"/>
<polyline fill="none" stroke="black" points="102,-121.5 13,-121.5 "/>
<path fill="none" stroke="black" d="M13,-121.5C7,-121.5 1,-115.5 1,-109.5"/>
<polyline fill="none" stroke="black" points="1,-109.5 1,-13.5 "/>
<path fill="none" stroke="black" d="M1,-13.5C1,-7.5 7,-1.5 13,-1.5"/>
<text text-anchor="middle" x="57.5" y="-104.9" font-family="Times Roman,serif" font-size="14.00">BillsController</text>
<polyline fill="none" stroke="black" points="1,-95.5 114,-95.5 "/>
<text text-anchor="start" x="9" y="-78.9" font-family="Times Roman,serif" font-size="14.00">create</text>
<text text-anchor="start" x="9" y="-60.9" font-family="Times Roman,serif" font-size="14.00">new</text>
<polyline fill="none" stroke="black" points="1,-51.5 114,-51.5 "/>
<polyline fill="none" stroke="black" points="1,-27.5 114,-27.5 "/>
<text text-anchor="start" x="9" y="-10.9" font-family="Times Roman,serif" font-size="14.00">_layout</text>
</g>
<!-- HomeController -->
<g id="node7" class="node"><title>HomeController</title>
<polyline fill="none" stroke="black" points="673,-461.5 774,-461.5 "/>
<path fill="none" stroke="black" d="M774,-461.5C780,-461.5 786,-467.5 786,-473.5"/>
<polyline fill="none" stroke="black" points="786,-473.5 786,-551.5 "/>
<path fill="none" stroke="black" d="M786,-551.5C786,-557.5 780,-563.5 774,-563.5"/>
<polyline fill="none" stroke="black" points="774,-563.5 673,-563.5 "/>
<path fill="none" stroke="black" d="M673,-563.5C667,-563.5 661,-557.5 661,-551.5"/>
<polyline fill="none" stroke="black" points="661,-551.5 661,-473.5 "/>
<path fill="none" stroke="black" d="M661,-473.5C661,-467.5 667,-461.5 673,-461.5"/>
<text text-anchor="middle" x="723.5" y="-546.9" font-family="Times Roman,serif" font-size="14.00">HomeController</text>
<polyline fill="none" stroke="black" points="661,-537.5 786,-537.5 "/>
<text text-anchor="start" x="669" y="-520.9" font-family="Times Roman,serif" font-size="14.00">show</text>
<polyline fill="none" stroke="black" points="661,-511.5 786,-511.5 "/>
<polyline fill="none" stroke="black" points="661,-487.5 786,-487.5 "/>
<text text-anchor="start" x="669" y="-470.9" font-family="Times Roman,serif" font-size="14.00">_layout</text>
</g>
<!-- LoginsController -->
<g id="node8" class="node"><title>LoginsController</title>
<polyline fill="none" stroke="black" points="673,-601.5 779,-601.5 "/>
<path fill="none" stroke="black" d="M779,-601.5C785,-601.5 791,-607.5 791,-613.5"/>
<polyline fill="none" stroke="black" points="791,-613.5 791,-709.5 "/>
<path fill="none" stroke="black" d="M791,-709.5C791,-715.5 785,-721.5 779,-721.5"/>
<polyline fill="none" stroke="black" points="779,-721.5 673,-721.5 "/>
<path fill="none" stroke="black" d="M673,-721.5C667,-721.5 661,-715.5 661,-709.5"/>
<polyline fill="none" stroke="black" points="661,-709.5 661,-613.5 "/>
<path fill="none" stroke="black" d="M661,-613.5C661,-607.5 667,-601.5 673,-601.5"/>
<text text-anchor="middle" x="726" y="-704.9" font-family="Times Roman,serif" font-size="14.00">LoginsController</text>
<polyline fill="none" stroke="black" points="661,-695.5 791,-695.5 "/>
<text text-anchor="start" x="669" y="-678.9" font-family="Times Roman,serif" font-size="14.00">create</text>
<text text-anchor="start" x="669" y="-660.9" font-family="Times Roman,serif" font-size="14.00">new</text>
<polyline fill="none" stroke="black" points="661,-651.5 791,-651.5 "/>
<polyline fill="none" stroke="black" points="661,-627.5 791,-627.5 "/>
<text text-anchor="start" x="669" y="-610.9" font-family="Times Roman,serif" font-size="14.00">_layout</text>
</g>
<!-- PatientsController -->
<g id="node9" class="node"><title>PatientsController</title>
<polyline fill="none" stroke="black" points="73,-341.5 191,-341.5 "/>
<path fill="none" stroke="black" d="M191,-341.5C197,-341.5 203,-347.5 203,-353.5"/>
<polyline fill="none" stroke="black" points="203,-353.5 203,-539.5 "/>
<path fill="none" stroke="black" d="M203,-539.5C203,-545.5 197,-551.5 191,-551.5"/>
<polyline fill="none" stroke="black" points="191,-551.5 73,-551.5 "/>
<path fill="none" stroke="black" d="M73,-551.5C67,-551.5 61,-545.5 61,-539.5"/>
<polyline fill="none" stroke="black" points="61,-539.5 61,-353.5 "/>
<path fill="none" stroke="black" d="M61,-353.5C61,-347.5 67,-341.5 73,-341.5"/>
<text text-anchor="middle" x="132" y="-534.9" font-family="Times Roman,serif" font-size="14.00">PatientsController</text>
<polyline fill="none" stroke="black" points="61,-525.5 203,-525.5 "/>
<text text-anchor="start" x="69" y="-508.9" font-family="Times Roman,serif" font-size="14.00">create</text>
<text text-anchor="start" x="69" y="-490.9" font-family="Times Roman,serif" font-size="14.00">destroy</text>
<text text-anchor="start" x="69" y="-472.9" font-family="Times Roman,serif" font-size="14.00">edit</text>
<text text-anchor="start" x="69" y="-454.9" font-family="Times Roman,serif" font-size="14.00">index</text>
<text text-anchor="start" x="69" y="-436.9" font-family="Times Roman,serif" font-size="14.00">new</text>
<text text-anchor="start" x="69" y="-418.9" font-family="Times Roman,serif" font-size="14.00">show</text>
<text text-anchor="start" x="69" y="-400.9" font-family="Times Roman,serif" font-size="14.00">update</text>
<polyline fill="none" stroke="black" points="61,-391.5 203,-391.5 "/>
<polyline fill="none" stroke="black" points="61,-367.5 203,-367.5 "/>
<text text-anchor="start" x="69" y="-350.9" font-family="Times Roman,serif" font-size="14.00">_layout</text>
</g>
<!-- PhonesController -->
<g id="node10" class="node"><title>PhonesController</title>
<polyline fill="none" stroke="black" points="693,-221.5 805,-221.5 "/>
<path fill="none" stroke="black" d="M805,-221.5C811,-221.5 817,-227.5 817,-233.5"/>
<polyline fill="none" stroke="black" points="817,-233.5 817,-329.5 "/>
<path fill="none" stroke="black" d="M817,-329.5C817,-335.5 811,-341.5 805,-341.5"/>
<polyline fill="none" stroke="black" points="805,-341.5 693,-341.5 "/>
<path fill="none" stroke="black" d="M693,-341.5C687,-341.5 681,-335.5 681,-329.5"/>
<polyline fill="none" stroke="black" points="681,-329.5 681,-233.5 "/>
<path fill="none" stroke="black" d="M681,-233.5C681,-227.5 687,-221.5 693,-221.5"/>
<text text-anchor="middle" x="749" y="-324.9" font-family="Times Roman,serif" font-size="14.00">PhonesController</text>
<polyline fill="none" stroke="black" points="681,-315.5 817,-315.5 "/>
<text text-anchor="start" x="689" y="-298.9" font-family="Times Roman,serif" font-size="14.00">create</text>
<text text-anchor="start" x="689" y="-280.9" font-family="Times Roman,serif" font-size="14.00">new</text>
<polyline fill="none" stroke="black" points="681,-271.5 817,-271.5 "/>
<polyline fill="none" stroke="black" points="681,-247.5 817,-247.5 "/>
<text text-anchor="start" x="689" y="-230.9" font-family="Times Roman,serif" font-size="14.00">_layout</text>
</g>
<!-- PhysiciansController -->
<g id="node11" class="node"><title>PhysiciansController</title>
<polyline fill="none" stroke="black" points="473,-461.5 606,-461.5 "/>
<path fill="none" stroke="black" d="M606,-461.5C612,-461.5 618,-467.5 618,-473.5"/>
<polyline fill="none" stroke="black" points="618,-473.5 618,-677.5 "/>
<path fill="none" stroke="black" d="M618,-677.5C618,-683.5 612,-689.5 606,-689.5"/>
<polyline fill="none" stroke="black" points="606,-689.5 473,-689.5 "/>
<path fill="none" stroke="black" d="M473,-689.5C467,-689.5 461,-683.5 461,-677.5"/>
<polyline fill="none" stroke="black" points="461,-677.5 461,-473.5 "/>
<path fill="none" stroke="black" d="M461,-473.5C461,-467.5 467,-461.5 473,-461.5"/>
<text text-anchor="middle" x="539.5" y="-672.9" font-family="Times Roman,serif" font-size="14.00">PhysiciansController</text>
<polyline fill="none" stroke="black" points="461,-663.5 618,-663.5 "/>
<text text-anchor="start" x="469" y="-646.9" font-family="Times Roman,serif" font-size="14.00">create</text>
<text text-anchor="start" x="469" y="-628.9" font-family="Times Roman,serif" font-size="14.00">destroy</text>
<text text-anchor="start" x="469" y="-610.9" font-family="Times Roman,serif" font-size="14.00">edit</text>
<text text-anchor="start" x="469" y="-592.9" font-family="Times Roman,serif" font-size="14.00">edit_password</text>
<text text-anchor="start" x="469" y="-574.9" font-family="Times Roman,serif" font-size="14.00">index</text>
<text text-anchor="start" x="469" y="-556.9" font-family="Times Roman,serif" font-size="14.00">new</text>
<text text-anchor="start" x="469" y="-538.9" font-family="Times Roman,serif" font-size="14.00">show</text>
<text text-anchor="start" x="469" y="-520.9" font-family="Times Roman,serif" font-size="14.00">update</text>
<polyline fill="none" stroke="black" points="461,-511.5 618,-511.5 "/>
<polyline fill="none" stroke="black" points="461,-487.5 618,-487.5 "/>
<text text-anchor="start" x="469" y="-470.9" font-family="Times Roman,serif" font-size="14.00">_layout</text>
</g>
<!-- SchedulesController -->
<g id="node12" class="node"><title>SchedulesController</title>
<polyline fill="none" stroke="black" points="73,-621.5 204,-621.5 "/>
<path fill="none" stroke="black" d="M204,-621.5C210,-621.5 216,-627.5 216,-633.5"/>
<polyline fill="none" stroke="black" points="216,-633.5 216,-819.5 "/>
<path fill="none" stroke="black" d="M216,-819.5C216,-825.5 210,-831.5 204,-831.5"/>
<polyline fill="none" stroke="black" points="204,-831.5 73,-831.5 "/>
<path fill="none" stroke="black" d="M73,-831.5C67,-831.5 61,-825.5 61,-819.5"/>
<polyline fill="none" stroke="black" points="61,-819.5 61,-633.5 "/>
<path fill="none" stroke="black" d="M61,-633.5C61,-627.5 67,-621.5 73,-621.5"/>
<text text-anchor="middle" x="138.5" y="-814.9" font-family="Times Roman,serif" font-size="14.00">SchedulesController</text>
<polyline fill="none" stroke="black" points="61,-805.5 216,-805.5 "/>
<text text-anchor="start" x="69" y="-788.9" font-family="Times Roman,serif" font-size="14.00">create</text>
<text text-anchor="start" x="69" y="-770.9" font-family="Times Roman,serif" font-size="14.00">destroy</text>
<text text-anchor="start" x="69" y="-752.9" font-family="Times Roman,serif" font-size="14.00">edit</text>
<text text-anchor="start" x="69" y="-734.9" font-family="Times Roman,serif" font-size="14.00">index</text>
<text text-anchor="start" x="69" y="-716.9" font-family="Times Roman,serif" font-size="14.00">new</text>
<text text-anchor="start" x="69" y="-698.9" font-family="Times Roman,serif" font-size="14.00">show</text>
<text text-anchor="start" x="69" y="-680.9" font-family="Times Roman,serif" font-size="14.00">update</text>
<polyline fill="none" stroke="black" points="61,-671.5 216,-671.5 "/>
<polyline fill="none" stroke="black" points="61,-647.5 216,-647.5 "/>
<text text-anchor="start" x="69" y="-630.9" font-family="Times Roman,serif" font-size="14.00">_layout</text>
</g>
<!-- SessionsController -->
<g id="node13" class="node"><title>SessionsController</title>
<polyline fill="none" stroke="black" points="73,-161.5 193,-161.5 "/>
<path fill="none" stroke="black" d="M193,-161.5C199,-161.5 205,-167.5 205,-173.5"/>
<polyline fill="none" stroke="black" points="205,-173.5 205,-287.5 "/>
<path fill="none" stroke="black" d="M205,-287.5C205,-293.5 199,-299.5 193,-299.5"/>
<polyline fill="none" stroke="black" points="193,-299.5 73,-299.5 "/>
<path fill="none" stroke="black" d="M73,-299.5C67,-299.5 61,-293.5 61,-287.5"/>
<polyline fill="none" stroke="black" points="61,-287.5 61,-173.5 "/>
<path fill="none" stroke="black" d="M61,-173.5C61,-167.5 67,-161.5 73,-161.5"/>
<text text-anchor="middle" x="133" y="-282.9" font-family="Times Roman,serif" font-size="14.00">SessionsController</text>
<polyline fill="none" stroke="black" points="61,-273.5 205,-273.5 "/>
<text text-anchor="start" x="69" y="-256.9" font-family="Times Roman,serif" font-size="14.00">create</text>
<text text-anchor="start" x="69" y="-238.9" font-family="Times Roman,serif" font-size="14.00">destroy</text>
<text text-anchor="start" x="69" y="-220.9" font-family="Times Roman,serif" font-size="14.00">new</text>
<polyline fill="none" stroke="black" points="61,-211.5 205,-211.5 "/>
<polyline fill="none" stroke="black" points="61,-187.5 205,-187.5 "/>
<text text-anchor="start" x="69" y="-170.9" font-family="Times Roman,serif" font-size="14.00">_layout</text>
</g>
</g>
</svg>
