<?xml version="1.0" encoding="UTF-8" standalone="no"?>
<!DOCTYPE svg PUBLIC "-//W3C//DTD SVG 1.1//EN"
 "http://www.w3.org/Graphics/SVG/1.1/DTD/svg11.dtd">
<!-- Generated by graphviz version 2.26.3 (20100126.1600)
 -->
<!-- Title: models_diagram Pages: 1 -->
<svg width="1353pt" height="368pt"
 viewBox="0.00 0.00 1353.00 368.00" xmlns="http://www.w3.org/2000/svg" xmlns:xlink="http://www.w3.org/1999/xlink">
<g id="graph1" class="graph" transform="scale(1 1) rotate(0) translate(4 364)">
<title>models_diagram</title>
<polygon fill="white" stroke="white" points="-4,5 -4,-364 1350,-364 1350,5 -4,5"/>
<!-- _diagram_info -->
<g id="node1" class="node"><title>_diagram_info</title>
<text text-anchor="start" x="8" y="-309.8" font-family="Times Roman,serif" font-size="13.00">Models diagram</text>
<text text-anchor="start" x="8" y="-292.8" font-family="Times Roman,serif" font-size="13.00">Date: Mar 25 2012 &#45; 14:08</text>
<text text-anchor="start" x="8" y="-275.8" font-family="Times Roman,serif" font-size="13.00">Migration version: 20120219002131</text>
<text text-anchor="start" x="8" y="-258.8" font-family="Times Roman,serif" font-size="13.00">Generated by RailRoady 1.0.7</text>
<text text-anchor="start" x="8" y="-241.8" font-family="Times Roman,serif" font-size="13.00">http://railroady.prestonlee.com</text>
</g>
<!-- Address -->
<g id="node2" class="node"><title>Address</title>
<polyline fill="none" stroke="black" points="97.5,-1 238.5,-1 "/>
<path fill="none" stroke="black" d="M238.5,-1C244.5,-1 250.5,-7 250.5,-13"/>
<polyline fill="none" stroke="black" points="250.5,-13 250.5,-149 "/>
<path fill="none" stroke="black" d="M250.5,-149C250.5,-155 244.5,-161 238.5,-161"/>
<polyline fill="none" stroke="black" points="238.5,-161 97.5,-161 "/>
<path fill="none" stroke="black" d="M97.5,-161C91.5,-161 85.5,-155 85.5,-149"/>
<polyline fill="none" stroke="black" points="85.5,-149 85.5,-13 "/>
<path fill="none" stroke="black" d="M85.5,-13C85.5,-7 91.5,-1 97.5,-1"/>
<text text-anchor="middle" x="168" y="-144.4" font-family="Times Roman,serif" font-size="14.00">Address</text>
<polyline fill="none" stroke="black" points="85.5,-135 250.5,-135 "/>
<text text-anchor="start" x="93.5" y="-118.4" font-family="Times Roman,serif" font-size="14.00">zip :string</text>
<text text-anchor="start" x="93.5" y="-100.4" font-family="Times Roman,serif" font-size="14.00">street :string</text>
<text text-anchor="start" x="93.5" y="-82.4" font-family="Times Roman,serif" font-size="14.00">state :string</text>
<text text-anchor="start" x="93.5" y="-64.4" font-family="Times Roman,serif" font-size="14.00">country :string</text>
<text text-anchor="start" x="93.5" y="-46.4" font-family="Times Roman,serif" font-size="14.00">owner_type :string</text>
<text text-anchor="start" x="93.5" y="-28.4" font-family="Times Roman,serif" font-size="14.00">created_at :datetime</text>
<text text-anchor="start" x="93.5" y="-10.4" font-family="Times Roman,serif" font-size="14.00">updated_at :datetime</text>
</g>
<!-- Administrator -->
<g id="node3" class="node"><title>Administrator</title>
<polyline fill="none" stroke="black" points="646.5,-235 787.5,-235 "/>
<path fill="none" stroke="black" d="M787.5,-235C793.5,-235 799.5,-241 799.5,-247"/>
<polyline fill="none" stroke="black" points="799.5,-247 799.5,-311 "/>
<path fill="none" stroke="black" d="M799.5,-311C799.5,-317 793.5,-323 787.5,-323"/>
<polyline fill="none" stroke="black" points="787.5,-323 646.5,-323 "/>
<path fill="none" stroke="black" d="M646.5,-323C640.5,-323 634.5,-317 634.5,-311"/>
<polyline fill="none" stroke="black" points="634.5,-311 634.5,-247 "/>
<path fill="none" stroke="black" d="M634.5,-247C634.5,-241 640.5,-235 646.5,-235"/>
<text text-anchor="middle" x="717" y="-306.4" font-family="Times Roman,serif" font-size="14.00">Administrator</text>
<polyline fill="none" stroke="black" points="634.5,-297 799.5,-297 "/>
<text text-anchor="start" x="642.5" y="-280.4" font-family="Times Roman,serif" font-size="14.00">name :string</text>
<text text-anchor="start" x="642.5" y="-262.4" font-family="Times Roman,serif" font-size="14.00">created_at :datetime</text>
<text text-anchor="start" x="642.5" y="-244.4" font-family="Times Roman,serif" font-size="14.00">updated_at :datetime</text>
</g>
<!-- Login -->
<g id="node7" class="node"><title>Login</title>
<polyline fill="none" stroke="black" points="643.5,-10 790.5,-10 "/>
<path fill="none" stroke="black" d="M790.5,-10C796.5,-10 802.5,-16 802.5,-22"/>
<polyline fill="none" stroke="black" points="802.5,-22 802.5,-140 "/>
<path fill="none" stroke="black" d="M802.5,-140C802.5,-146 796.5,-152 790.5,-152"/>
<polyline fill="none" stroke="black" points="790.5,-152 643.5,-152 "/>
<path fill="none" stroke="black" d="M643.5,-152C637.5,-152 631.5,-146 631.5,-140"/>
<polyline fill="none" stroke="black" points="631.5,-140 631.5,-22 "/>
<path fill="none" stroke="black" d="M631.5,-22C631.5,-16 637.5,-10 643.5,-10"/>
<text text-anchor="middle" x="717" y="-135.4" font-family="Times Roman,serif" font-size="14.00">Login</text>
<polyline fill="none" stroke="black" points="631.5,-126 802.5,-126 "/>
<text text-anchor="start" x="639.5" y="-109.4" font-family="Times Roman,serif" font-size="14.00">username :string</text>
<text text-anchor="start" x="639.5" y="-91.4" font-family="Times Roman,serif" font-size="14.00">password_hash :string</text>
<text text-anchor="start" x="639.5" y="-73.4" font-family="Times Roman,serif" font-size="14.00">password_salt :string</text>
<text text-anchor="start" x="639.5" y="-55.4" font-family="Times Roman,serif" font-size="14.00">owner_type :string</text>
<text text-anchor="start" x="639.5" y="-37.4" font-family="Times Roman,serif" font-size="14.00">created_at :datetime</text>
<text text-anchor="start" x="639.5" y="-19.4" font-family="Times Roman,serif" font-size="14.00">updated_at :datetime</text>
</g>
<!-- Administrator&#45;&gt;Login -->
<g id="edge2" class="edge"><title>Administrator&#45;&gt;Login</title>
<path fill="none" stroke="#76eee0" d="M717,-226.38C717,-206.101 717,-182.468 717,-160.223"/>
<ellipse fill="none" stroke="#76eee0" cx="717" cy="-230.565" rx="4" ry="4"/>
<ellipse fill="#76eee0" stroke="#76eee0" cx="717" cy="-156.099" rx="4" ry="4"/>
</g>
<!-- Appointment -->
<g id="node4" class="node"><title>Appointment</title>
<polyline fill="none" stroke="black" points="828.5,-226 969.5,-226 "/>
<path fill="none" stroke="black" d="M969.5,-226C975.5,-226 981.5,-232 981.5,-238"/>
<polyline fill="none" stroke="black" points="981.5,-238 981.5,-320 "/>
<path fill="none" stroke="black" d="M981.5,-320C981.5,-326 975.5,-332 969.5,-332"/>
<polyline fill="none" stroke="black" points="969.5,-332 828.5,-332 "/>
<path fill="none" stroke="black" d="M828.5,-332C822.5,-332 816.5,-326 816.5,-320"/>
<polyline fill="none" stroke="black" points="816.5,-320 816.5,-238 "/>
<path fill="none" stroke="black" d="M816.5,-238C816.5,-232 822.5,-226 828.5,-226"/>
<text text-anchor="middle" x="899" y="-315.4" font-family="Times Roman,serif" font-size="14.00">Appointment</text>
<polyline fill="none" stroke="black" points="816.5,-306 981.5,-306 "/>
<text text-anchor="start" x="824.5" y="-289.4" font-family="Times Roman,serif" font-size="14.00">start_time :datetime</text>
<text text-anchor="start" x="824.5" y="-271.4" font-family="Times Roman,serif" font-size="14.00">end_time :datetime</text>
<text text-anchor="start" x="824.5" y="-253.4" font-family="Times Roman,serif" font-size="14.00">created_at :datetime</text>
<text text-anchor="start" x="824.5" y="-235.4" font-family="Times Roman,serif" font-size="14.00">updated_at :datetime</text>
</g>
<!-- Email -->
<g id="node5" class="node"><title>Email</title>
<polyline fill="none" stroke="black" points="279.5,-19 420.5,-19 "/>
<path fill="none" stroke="black" d="M420.5,-19C426.5,-19 432.5,-25 432.5,-31"/>
<polyline fill="none" stroke="black" points="432.5,-31 432.5,-131 "/>
<path fill="none" stroke="black" d="M432.5,-131C432.5,-137 426.5,-143 420.5,-143"/>
<polyline fill="none" stroke="black" points="420.5,-143 279.5,-143 "/>
<path fill="none" stroke="black" d="M279.5,-143C273.5,-143 267.5,-137 267.5,-131"/>
<polyline fill="none" stroke="black" points="267.5,-131 267.5,-31 "/>
<path fill="none" stroke="black" d="M267.5,-31C267.5,-25 273.5,-19 279.5,-19"/>
<text text-anchor="middle" x="350" y="-126.4" font-family="Times Roman,serif" font-size="14.00">Email</text>
<polyline fill="none" stroke="black" points="267.5,-117 432.5,-117 "/>
<text text-anchor="start" x="275.5" y="-100.4" font-family="Times Roman,serif" font-size="14.00">email_type :string</text>
<text text-anchor="start" x="275.5" y="-82.4" font-family="Times Roman,serif" font-size="14.00">email :string</text>
<text text-anchor="start" x="275.5" y="-64.4" font-family="Times Roman,serif" font-size="14.00">owner_type :string</text>
<text text-anchor="start" x="275.5" y="-46.4" font-family="Times Roman,serif" font-size="14.00">created_at :datetime</text>
<text text-anchor="start" x="275.5" y="-28.4" font-family="Times Roman,serif" font-size="14.00">updated_at :datetime</text>
</g>
<!-- HealthPrice -->
<g id="node6" class="node"><title>HealthPrice</title>
<polyline fill="none" stroke="black" points="1010.5,-226 1151.5,-226 "/>
<path fill="none" stroke="black" d="M1151.5,-226C1157.5,-226 1163.5,-232 1163.5,-238"/>
<polyline fill="none" stroke="black" points="1163.5,-238 1163.5,-320 "/>
<path fill="none" stroke="black" d="M1163.5,-320C1163.5,-326 1157.5,-332 1151.5,-332"/>
<polyline fill="none" stroke="black" points="1151.5,-332 1010.5,-332 "/>
<path fill="none" stroke="black" d="M1010.5,-332C1004.5,-332 998.5,-326 998.5,-320"/>
<polyline fill="none" stroke="black" points="998.5,-320 998.5,-238 "/>
<path fill="none" stroke="black" d="M998.5,-238C998.5,-232 1004.5,-226 1010.5,-226"/>
<text text-anchor="middle" x="1081" y="-315.4" font-family="Times Roman,serif" font-size="14.00">HealthPrice</text>
<polyline fill="none" stroke="black" points="998.5,-306 1163.5,-306 "/>
<text text-anchor="start" x="1006.5" y="-289.4" font-family="Times Roman,serif" font-size="14.00">insure_code :string</text>
<text text-anchor="start" x="1006.5" y="-271.4" font-family="Times Roman,serif" font-size="14.00">cost :float</text>
<text text-anchor="start" x="1006.5" y="-253.4" font-family="Times Roman,serif" font-size="14.00">created_at :datetime</text>
<text text-anchor="start" x="1006.5" y="-235.4" font-family="Times Roman,serif" font-size="14.00">updated_at :datetime</text>
</g>
<!-- Patient -->
<g id="node8" class="node"><title>Patient</title>
<polyline fill="none" stroke="black" points="279.5,-208 420.5,-208 "/>
<path fill="none" stroke="black" d="M420.5,-208C426.5,-208 432.5,-214 432.5,-220"/>
<polyline fill="none" stroke="black" points="432.5,-220 432.5,-338 "/>
<path fill="none" stroke="black" d="M432.5,-338C432.5,-344 426.5,-350 420.5,-350"/>
<polyline fill="none" stroke="black" points="420.5,-350 279.5,-350 "/>
<path fill="none" stroke="black" d="M279.5,-350C273.5,-350 267.5,-344 267.5,-338"/>
<polyline fill="none" stroke="black" points="267.5,-338 267.5,-220 "/>
<path fill="none" stroke="black" d="M267.5,-220C267.5,-214 273.5,-208 279.5,-208"/>
<text text-anchor="middle" x="350" y="-333.4" font-family="Times Roman,serif" font-size="14.00">Patient</text>
<polyline fill="none" stroke="black" points="267.5,-324 432.5,-324 "/>
<text text-anchor="start" x="275.5" y="-307.4" font-family="Times Roman,serif" font-size="14.00">date_of_birth :date</text>
<text text-anchor="start" x="275.5" y="-289.4" font-family="Times Roman,serif" font-size="14.00">created_at :datetime</text>
<text text-anchor="start" x="275.5" y="-271.4" font-family="Times Roman,serif" font-size="14.00">updated_at :datetime</text>
<text text-anchor="start" x="275.5" y="-253.4" font-family="Times Roman,serif" font-size="14.00">firstname :string</text>
<text text-anchor="start" x="275.5" y="-235.4" font-family="Times Roman,serif" font-size="14.00">middlename :string</text>
<text text-anchor="start" x="275.5" y="-217.4" font-family="Times Roman,serif" font-size="14.00">lastname :string</text>
</g>
<!-- Patient&#45;&gt;Address -->
<g id="edge6" class="edge"><title>Patient&#45;&gt;Address</title>
<path fill="none" stroke="#a4a8e5" d="M278.987,-201.744C269.078,-190.964 258.837,-179.822 248.765,-168.865"/>
<ellipse fill="none" stroke="#a4a8e5" cx="281.844" cy="-204.852" rx="4.00002" ry="4.00002"/>
<polygon fill="#a4a8e5" stroke="#a4a8e5" points="248.593,-168.678 245.139,-158.27 245.209,-164.997 241.825,-161.316 241.825,-161.316 241.825,-161.316 245.209,-164.997 238.512,-164.361 248.593,-168.678 248.593,-168.678"/>
</g>
<!-- Patient&#45;&gt;Email -->
<g id="edge4" class="edge"><title>Patient&#45;&gt;Email</title>
<path fill="none" stroke="#af3665" d="M350,-199.778C350,-184.443 350,-168.448 350,-153.347"/>
<ellipse fill="none" stroke="#af3665" cx="350" cy="-203.797" rx="4" ry="4"/>
<polygon fill="#af3665" stroke="#af3665" points="350,-153.055 354.5,-143.055 350,-148.055 350,-143.055 350,-143.055 350,-143.055 350,-148.055 345.5,-143.055 350,-153.055 350,-153.055"/>
</g>
<!-- Phone -->
<g id="node9" class="node"><title>Phone</title>
<polyline fill="none" stroke="black" points="461.5,-19 602.5,-19 "/>
<path fill="none" stroke="black" d="M602.5,-19C608.5,-19 614.5,-25 614.5,-31"/>
<polyline fill="none" stroke="black" points="614.5,-31 614.5,-131 "/>
<path fill="none" stroke="black" d="M614.5,-131C614.5,-137 608.5,-143 602.5,-143"/>
<polyline fill="none" stroke="black" points="602.5,-143 461.5,-143 "/>
<path fill="none" stroke="black" d="M461.5,-143C455.5,-143 449.5,-137 449.5,-131"/>
<polyline fill="none" stroke="black" points="449.5,-131 449.5,-31 "/>
<path fill="none" stroke="black" d="M449.5,-31C449.5,-25 455.5,-19 461.5,-19"/>
<text text-anchor="middle" x="532" y="-126.4" font-family="Times Roman,serif" font-size="14.00">Phone</text>
<polyline fill="none" stroke="black" points="449.5,-117 614.5,-117 "/>
<text text-anchor="start" x="457.5" y="-100.4" font-family="Times Roman,serif" font-size="14.00">phone_type :string</text>
<text text-anchor="start" x="457.5" y="-82.4" font-family="Times Roman,serif" font-size="14.00">phone :string</text>
<text text-anchor="start" x="457.5" y="-64.4" font-family="Times Roman,serif" font-size="14.00">owner_type :string</text>
<text text-anchor="start" x="457.5" y="-46.4" font-family="Times Roman,serif" font-size="14.00">created_at :datetime</text>
<text text-anchor="start" x="457.5" y="-28.4" font-family="Times Roman,serif" font-size="14.00">updated_at :datetime</text>
</g>
<!-- Patient&#45;&gt;Phone -->
<g id="edge8" class="edge"><title>Patient&#45;&gt;Phone</title>
<path fill="none" stroke="#5757fe" d="M420.965,-201.796C436.485,-184.912 452.822,-167.138 468.049,-150.573"/>
<ellipse fill="none" stroke="#5757fe" cx="418.156" cy="-204.852" rx="4.00002" ry="4.00002"/>
<polygon fill="#5757fe" stroke="#5757fe" points="468.192,-150.417 478.273,-146.1 471.576,-146.736 474.96,-143.055 474.96,-143.055 474.96,-143.055 471.576,-146.736 471.647,-140.01 468.192,-150.417 468.192,-150.417"/>
</g>
<!-- Physician -->
<g id="node10" class="node"><title>Physician</title>
<polyline fill="none" stroke="black" points="461.5,-199 602.5,-199 "/>
<path fill="none" stroke="black" d="M602.5,-199C608.5,-199 614.5,-205 614.5,-211"/>
<polyline fill="none" stroke="black" points="614.5,-211 614.5,-347 "/>
<path fill="none" stroke="black" d="M614.5,-347C614.5,-353 608.5,-359 602.5,-359"/>
<polyline fill="none" stroke="black" points="602.5,-359 461.5,-359 "/>
<path fill="none" stroke="black" d="M461.5,-359C455.5,-359 449.5,-353 449.5,-347"/>
<polyline fill="none" stroke="black" points="449.5,-347 449.5,-211 "/>
<path fill="none" stroke="black" d="M449.5,-211C449.5,-205 455.5,-199 461.5,-199"/>
<text text-anchor="middle" x="532" y="-342.4" font-family="Times Roman,serif" font-size="14.00">Physician</text>
<polyline fill="none" stroke="black" points="449.5,-333 614.5,-333 "/>
<text text-anchor="start" x="457.5" y="-316.4" font-family="Times Roman,serif" font-size="14.00">specialty :string</text>
<text text-anchor="start" x="457.5" y="-298.4" font-family="Times Roman,serif" font-size="14.00">office_num :integer</text>
<text text-anchor="start" x="457.5" y="-280.4" font-family="Times Roman,serif" font-size="14.00">created_at :datetime</text>
<text text-anchor="start" x="457.5" y="-262.4" font-family="Times Roman,serif" font-size="14.00">updated_at :datetime</text>
<text text-anchor="start" x="457.5" y="-244.4" font-family="Times Roman,serif" font-size="14.00">firstname :string</text>
<text text-anchor="start" x="457.5" y="-226.4" font-family="Times Roman,serif" font-size="14.00">middlename :string</text>
<text text-anchor="start" x="457.5" y="-208.4" font-family="Times Roman,serif" font-size="14.00">lastname :string</text>
</g>
<!-- Physician&#45;&gt;Address -->
<g id="edge12" class="edge"><title>Physician&#45;&gt;Address</title>
<path fill="none" stroke="#c017fe" d="M442.33,-198.67C441.887,-198.444 441.444,-198.221 441,-198 370.047,-162.731 335.579,-195.893 259.975,-161.928"/>
<ellipse fill="none" stroke="#c017fe" cx="445.943" cy="-200.641" rx="4.00002" ry="4.00002"/>
<polygon fill="#c017fe" stroke="#c017fe" points="259.577,-161.738 252.479,-153.38 255.061,-159.591 250.546,-157.444 250.546,-157.444 250.546,-157.444 255.061,-159.591 248.613,-161.508 259.577,-161.738 259.577,-161.738"/>
</g>
<!-- Physician&#45;&gt;Email -->
<g id="edge10" class="edge"><title>Physician&#45;&gt;Email</title>
<path fill="none" stroke="#be2176" d="M452.616,-192.637C439.691,-178.576 426.448,-164.169 413.953,-150.576"/>
<ellipse fill="none" stroke="#be2176" cx="455.529" cy="-195.806" rx="4.00002" ry="4.00002"/>
<polygon fill="#be2176" stroke="#be2176" points="413.863,-150.478 410.409,-140.07 410.48,-146.796 407.096,-143.115 407.096,-143.115 407.096,-143.115 410.48,-146.796 403.783,-146.161 413.863,-150.478 413.863,-150.478"/>
</g>
<!-- Physician&#45;&gt;Login -->
<g id="edge14" class="edge"><title>Physician&#45;&gt;Login</title>
<path fill="none" stroke="#5ff58c" d="M612.754,-192.571C623.502,-181.069 634.464,-169.336 645.048,-158.008"/>
<ellipse fill="none" stroke="#5ff58c" cx="609.711" cy="-195.828" rx="4.00002" ry="4.00002"/>
<ellipse fill="#5ff58c" stroke="#5ff58c" cx="647.815" cy="-155.047" rx="4.00002" ry="4.00002"/>
</g>
<!-- Physician&#45;&gt;Phone -->
<g id="edge16" class="edge"><title>Physician&#45;&gt;Phone</title>
<path fill="none" stroke="#5e9ade" d="M532,-190.442C532,-177.964 532,-165.262 532,-153.142"/>
<ellipse fill="none" stroke="#5e9ade" cx="532" cy="-194.751" rx="4" ry="4"/>
<polygon fill="#5e9ade" stroke="#5e9ade" points="532,-153.115 536.5,-143.115 532,-148.115 532,-143.115 532,-143.115 532,-143.115 532,-148.115 527.5,-143.115 532,-153.115 532,-153.115"/>
</g>
<!-- Schedule -->
<g id="node11" class="node"><title>Schedule</title>
<polyline fill="none" stroke="black" points="1192.5,-226 1333.5,-226 "/>
<path fill="none" stroke="black" d="M1333.5,-226C1339.5,-226 1345.5,-232 1345.5,-238"/>
<polyline fill="none" stroke="black" points="1345.5,-238 1345.5,-320 "/>
<path fill="none" stroke="black" d="M1345.5,-320C1345.5,-326 1339.5,-332 1333.5,-332"/>
<polyline fill="none" stroke="black" points="1333.5,-332 1192.5,-332 "/>
<path fill="none" stroke="black" d="M1192.5,-332C1186.5,-332 1180.5,-326 1180.5,-320"/>
<polyline fill="none" stroke="black" points="1180.5,-320 1180.5,-238 "/>
<path fill="none" stroke="black" d="M1180.5,-238C1180.5,-232 1186.5,-226 1192.5,-226"/>
<text text-anchor="middle" x="1263" y="-315.4" font-family="Times Roman,serif" font-size="14.00">Schedule</text>
<polyline fill="none" stroke="black" points="1180.5,-306 1345.5,-306 "/>
<text text-anchor="start" x="1188.5" y="-289.4" font-family="Times Roman,serif" font-size="14.00">start_time :datetime</text>
<text text-anchor="start" x="1188.5" y="-271.4" font-family="Times Roman,serif" font-size="14.00">end_time :datetime</text>
<text text-anchor="start" x="1188.5" y="-253.4" font-family="Times Roman,serif" font-size="14.00">created_at :datetime</text>
<text text-anchor="start" x="1188.5" y="-235.4" font-family="Times Roman,serif" font-size="14.00">updated_at :datetime</text>
</g>
</g>
</svg>
