<?xml version="1.0" encoding="UTF-8" standalone="no"?>
<!DOCTYPE svg PUBLIC "-//W3C//DTD SVG 1.1//EN"
 "http://www.w3.org/Graphics/SVG/1.1/DTD/svg11.dtd">
<!-- Generated by graphviz version 2.26.3 (20100126.1600)
 -->
<!-- Title: models_diagram Pages: 1 -->
<svg width="1126pt" height="176pt"
 viewBox="0.00 0.00 1126.00 176.00" xmlns="http://www.w3.org/2000/svg" xmlns:xlink="http://www.w3.org/1999/xlink">
<g id="graph1" class="graph" transform="scale(1 1) rotate(0) translate(4 172)">
<title>models_diagram</title>
<polygon fill="white" stroke="white" points="-4,5 -4,-172 1123,-172 1123,5 -4,5"/>
<!-- _diagram_info -->
<g id="node1" class="node"><title>_diagram_info</title>
<text text-anchor="start" x="8" y="-151.8" font-family="Times Roman,serif" font-size="13.00">Models diagram</text>
<text text-anchor="start" x="8" y="-134.8" font-family="Times Roman,serif" font-size="13.00">Date: Mar 25 2012 &#45; 14:08</text>
<text text-anchor="start" x="8" y="-117.8" font-family="Times Roman,serif" font-size="13.00">Migration version: 20120219002131</text>
<text text-anchor="start" x="8" y="-100.8" font-family="Times Roman,serif" font-size="13.00">Generated by RailRoady 1.0.7</text>
<text text-anchor="start" x="8" y="-83.8" font-family="Times Roman,serif" font-size="13.00">http://railroady.prestonlee.com</text>
</g>
<!-- Address -->
<g id="node2" class="node"><title>Address</title>
<ellipse fill="none" stroke="black" cx="245" cy="-19" rx="50.2046" ry="18.3848"/>
<text text-anchor="middle" x="245" y="-15.4" font-family="Times Roman,serif" font-size="14.00">Address</text>
</g>
<!-- Administrator -->
<g id="node3" class="node"><title>Administrator</title>
<ellipse fill="none" stroke="black" cx="588" cy="-121" rx="77.9889" ry="18.3848"/>
<text text-anchor="middle" x="588" y="-117.4" font-family="Times Roman,serif" font-size="14.00">Administrator</text>
</g>
<!-- Login -->
<g id="node7" class="node"><title>Login</title>
<ellipse fill="none" stroke="black" cx="574" cy="-19" rx="38.1838" ry="18.3848"/>
<text text-anchor="middle" x="574" y="-15.4" font-family="Times Roman,serif" font-size="14.00">Login</text>
</g>
<!-- Administrator&#45;&gt;Login -->
<g id="edge2" class="edge"><title>Administrator&#45;&gt;Login</title>
<path fill="none" stroke="#abf0bf" d="M584.296,-94.0151C582.254,-79.1397 579.728,-60.732 577.689,-45.8741"/>
<ellipse fill="none" stroke="#abf0bf" cx="584.888" cy="-98.3288" rx="4.00001" ry="4.00001"/>
<ellipse fill="#abf0bf" stroke="#abf0bf" cx="577.095" cy="-41.5526" rx="4.00001" ry="4.00001"/>
</g>
<!-- Appointment -->
<g id="node4" class="node"><title>Appointment</title>
<ellipse fill="none" stroke="black" cx="759" cy="-121" rx="74.9533" ry="18.3848"/>
<text text-anchor="middle" x="759" y="-117.4" font-family="Times Roman,serif" font-size="14.00">Appointment</text>
</g>
<!-- Email -->
<g id="node5" class="node"><title>Email</title>
<ellipse fill="none" stroke="black" cx="351" cy="-19" rx="38.1838" ry="18.3848"/>
<text text-anchor="middle" x="351" y="-15.4" font-family="Times Roman,serif" font-size="14.00">Email</text>
</g>
<!-- HealthPrice -->
<g id="node6" class="node"><title>HealthPrice</title>
<ellipse fill="none" stroke="black" cx="920" cy="-121" rx="67.8823" ry="18.3848"/>
<text text-anchor="middle" x="920" y="-117.4" font-family="Times Roman,serif" font-size="14.00">HealthPrice</text>
</g>
<!-- Patient -->
<g id="node8" class="node"><title>Patient</title>
<ellipse fill="none" stroke="black" cx="314" cy="-121" rx="46.1672" ry="18.3848"/>
<text text-anchor="middle" x="314" y="-117.4" font-family="Times Roman,serif" font-size="14.00">Patient</text>
</g>
<!-- Patient&#45;&gt;Address -->
<g id="edge4" class="edge"><title>Patient&#45;&gt;Address</title>
<path fill="none" stroke="#00c277" d="M296.991,-95.8559C286.685,-80.6213 273.548,-61.2014 263.058,-45.6945"/>
<ellipse fill="none" stroke="#00c277" cx="299.423" cy="-99.4513" rx="4.00002" ry="4.00002"/>
<polygon fill="#00c277" stroke="#00c277" points="262.832,-45.3605 260.956,-34.5563 260.031,-41.2191 257.229,-37.0777 257.229,-37.0777 257.229,-37.0777 260.031,-41.2191 253.502,-39.5991 262.832,-45.3605 262.832,-45.3605"/>
</g>
<!-- Patient&#45;&gt;Email -->
<g id="edge8" class="edge"><title>Patient&#45;&gt;Email</title>
<path fill="none" stroke="#60c076" d="M323.632,-94.4479C328.932,-79.8353 335.505,-61.7151 340.881,-46.8954"/>
<ellipse fill="none" stroke="#60c076" cx="322.15" cy="-98.5314" rx="4.00001" ry="4.00001"/>
<polygon fill="#60c076" stroke="#60c076" points="340.971,-46.6472 348.611,-38.7811 342.676,-41.9469 344.381,-37.2466 344.381,-37.2466 344.381,-37.2466 342.676,-41.9469 340.151,-35.712 340.971,-46.6472 340.971,-46.6472"/>
</g>
<!-- Phone -->
<g id="node9" class="node"><title>Phone</title>
<ellipse fill="none" stroke="black" cx="449" cy="-19" rx="41.9273" ry="18.3848"/>
<text text-anchor="middle" x="449" y="-15.4" font-family="Times Roman,serif" font-size="14.00">Phone</text>
</g>
<!-- Patient&#45;&gt;Phone -->
<g id="edge6" class="edge"><title>Patient&#45;&gt;Phone</title>
<path fill="none" stroke="#2afbbd" d="M339.074,-98.6107C348.307,-90.6256 358.962,-81.7056 369,-74 384.311,-62.2462 401.934,-50.0016 416.735,-40.0577"/>
<ellipse fill="none" stroke="#2afbbd" cx="335.95" cy="-101.335" rx="4.00002" ry="4.00002"/>
<polygon fill="#2afbbd" stroke="#2afbbd" points="416.765,-40.0376 427.582,-38.2337 420.925,-37.2637 425.085,-34.4898 425.085,-34.4898 425.085,-34.4898 420.925,-37.2637 422.589,-30.7458 416.765,-40.0376 416.765,-40.0376"/>
</g>
<!-- Physician -->
<g id="node10" class="node"><title>Physician</title>
<ellipse fill="none" stroke="black" cx="435" cy="-121" rx="56.7776" ry="18.3848"/>
<text text-anchor="middle" x="435" y="-117.4" font-family="Times Roman,serif" font-size="14.00">Physician</text>
</g>
<!-- Physician&#45;&gt;Address -->
<g id="edge10" class="edge"><title>Physician&#45;&gt;Address</title>
<path fill="none" stroke="#cdc82f" d="M406.7,-98.9475C395.324,-90.594 381.871,-81.3381 369,-74 343.533,-59.4813 313.515,-46.0782 289.393,-36.1384"/>
<ellipse fill="none" stroke="#cdc82f" cx="409.93" cy="-101.352" rx="4.00002" ry="4.00002"/>
<polygon fill="#cdc82f" stroke="#cdc82f" points="289.387,-36.1358 281.818,-28.2002 284.755,-34.2522 280.123,-32.3687 280.123,-32.3687 280.123,-32.3687 284.755,-34.2522 278.428,-36.5372 289.387,-36.1358 289.387,-36.1358"/>
</g>
<!-- Physician&#45;&gt;Email -->
<g id="edge16" class="edge"><title>Physician&#45;&gt;Email</title>
<path fill="none" stroke="#e385bd" d="M414.622,-96.2551C401.632,-80.482 384.849,-60.102 371.782,-44.2347"/>
<ellipse fill="none" stroke="#e385bd" cx="417.44" cy="-99.6767" rx="4.00002" ry="4.00002"/>
<polygon fill="#e385bd" stroke="#e385bd" points="371.684,-44.1162 368.8,-33.5361 368.505,-40.2565 365.327,-36.3968 365.327,-36.3968 365.327,-36.3968 368.505,-40.2565 361.853,-39.2575 371.684,-44.1162 371.684,-44.1162"/>
</g>
<!-- Physician&#45;&gt;Login -->
<g id="edge14" class="edge"><title>Physician&#45;&gt;Login</title>
<path fill="none" stroke="#25a8cb" d="M464.743,-99.174C488.889,-81.4555 522.682,-56.6581 546.269,-39.3491"/>
<ellipse fill="none" stroke="#25a8cb" cx="461.49" cy="-101.561" rx="4.00002" ry="4.00002"/>
<ellipse fill="#25a8cb" stroke="#25a8cb" cx="549.712" cy="-36.8226" rx="4.00002" ry="4.00002"/>
</g>
<!-- Physician&#45;&gt;Phone -->
<g id="edge12" class="edge"><title>Physician&#45;&gt;Phone</title>
<path fill="none" stroke="#6e38a8" d="M438.704,-94.0151C440.669,-79.6957 443.084,-62.1033 445.081,-47.5549"/>
<ellipse fill="none" stroke="#6e38a8" cx="438.112" cy="-98.3288" rx="4.00001" ry="4.00001"/>
<polygon fill="#6e38a8" stroke="#6e38a8" points="445.089,-47.4969 450.907,-38.2017 445.769,-42.5433 446.448,-37.5898 446.448,-37.5898 446.448,-37.5898 445.769,-42.5433 441.99,-36.9778 445.089,-47.4969 445.089,-47.4969"/>
</g>
<!-- Schedule -->
<g id="node11" class="node"><title>Schedule</title>
<ellipse fill="none" stroke="black" cx="1062" cy="-121" rx="55.8614" ry="18.3848"/>
<text text-anchor="middle" x="1062" y="-117.4" font-family="Times Roman,serif" font-size="14.00">Schedule</text>
</g>
</g>
</svg>
